# Blender 5.0.0 Release Candidate
# www.blender.org
mtllib hand.mtl
o Cube.001
v 0.726000 -0.255407 -2.454041
v 0.726000 0.366962 -2.454041
v 2.726000 -0.255407 -2.454041
v 2.726000 0.366962 -2.454041
v 1.199930 -0.222731 -1.830205
v 0.831008 -0.222731 -1.951655
v 1.122527 -0.221271 -1.834794
v 1.047814 -0.220256 -1.844851
v 0.979538 -0.219735 -1.859871
v 0.921122 -0.219735 -1.879102
v 0.875496 -0.220256 -1.901578
v 0.844947 -0.221271 -1.926174
v 0.831008 0.334285 -1.951655
v 1.199930 0.334285 -1.830205
v 0.844947 0.332826 -1.926174
v 0.875496 0.331811 -1.901578
v 0.921122 0.331290 -1.879102
v 0.979538 0.331290 -1.859871
v 1.047814 0.331811 -1.844851
v 1.122527 0.332826 -1.834794
v 2.726000 -0.255407 -2.007726
v 2.083267 -0.241645 -1.810196
v 2.704100 -0.254939 -1.953329
v 2.639890 -0.253564 -1.903632
v 2.537748 -0.251377 -1.862020
v 2.404634 -0.248526 -1.831331
v 2.249619 -0.245207 -1.813654
v 2.083267 0.353200 -1.810196
v 2.726000 0.366962 -2.007726
v 2.249619 0.356762 -1.813654
v 2.404634 0.360081 -1.831331
v 2.537748 0.362931 -1.862020
v 2.639890 0.365118 -1.903632
v 2.704100 0.366493 -1.953329
v 0.734915 2.109316 -2.445352
v 0.734915 2.109316 -3.193150
v 3.869475 -0.320386 -2.445352
v 3.869475 -0.320386 -3.193150
v 3.869475 1.846358 -2.445352
v 3.530232 2.109316 -2.445352
v 3.843651 1.946988 -2.445352
v 3.770113 2.032298 -2.445352
v 3.660054 2.089300 -2.445352
v 3.530232 2.109316 -3.193150
v 3.869475 1.846358 -3.193150
v 3.660054 2.089300 -3.193150
v 3.770113 2.032298 -3.193150
v 3.843651 1.946988 -3.193150
v 0.734915 -0.243718 -2.445352
v 0.833824 -0.320386 -2.445352
v 0.748166 -0.282052 -2.445352
v 0.784369 -0.310114 -2.445352
v 0.833824 -0.320386 -3.193150
v 0.734915 -0.243718 -3.193150
v 0.784369 -0.310114 -3.193150
v 0.748166 -0.282052 -3.193150
v 0.930494 1.483159 -2.447711
v 0.930494 2.105529 -2.447711
v 0.930494 1.483159 -3.171122
v 0.930494 2.105529 -3.171122
v -0.968080 1.483159 -2.447711
v -1.486583 1.483159 -2.602894
v -1.128306 1.483159 -2.455306
v -1.272848 1.483159 -2.477348
v -1.387557 1.483159 -2.511680
v -1.461205 1.483159 -2.554940
v -1.486583 2.105529 -2.602894
v -0.968080 2.105529 -2.447711
v -1.461205 2.105529 -2.554940
v -1.387557 2.105529 -2.511680
v -1.272848 2.105529 -2.477348
v -1.128306 2.105529 -2.455306
v -1.486583 1.483159 -3.000443
v -0.916306 1.483159 -3.171122
v -1.467151 1.483159 -3.044618
v -1.410180 1.483159 -3.085783
v -1.319553 1.483159 -3.121131
v -1.201444 1.483159 -3.148255
v -1.063904 1.483159 -3.165306
v -0.916306 2.105529 -3.171122
v -1.486583 2.105529 -3.000443
v -1.063904 2.105529 -3.165306
v -1.201444 2.105529 -3.148255
v -1.319553 2.105529 -3.121131
v -1.410180 2.105529 -3.085783
v -1.467151 2.105529 -3.044618
v 0.751624 0.493886 -2.453480
v 0.751624 1.116255 -2.453480
v 2.751624 0.493886 -2.453480
v 2.751624 1.116255 -2.453480
v 1.209708 0.536359 -1.840009
v 0.888114 0.536359 -1.945878
v 1.132351 0.538188 -1.845551
v 1.058484 0.539338 -1.857344
v 0.993140 0.539730 -1.874583
v 0.940772 0.539338 -1.896095
v 0.904950 0.538188 -1.920412
v 0.888114 1.073782 -1.945878
v 1.209708 1.073782 -1.840009
v 0.904950 1.071953 -1.920412
v 0.940772 1.070803 -1.896095
v 0.993140 1.070411 -1.874583
v 1.058484 1.070803 -1.857344
v 1.132351 1.071953 -1.845551
v 2.751624 0.493886 -2.055656
v 1.963156 0.515605 -1.818053
v 2.736474 0.494303 -2.005261
v 2.691606 0.495539 -1.957685
v 2.618743 0.497546 -1.914758
v 2.520687 0.500247 -1.878128
v 2.401206 0.503538 -1.849203
v 2.264890 0.507293 -1.829095
v 2.116979 0.511368 -1.818577
v 1.963156 1.094536 -1.818053
v 2.751624 1.116255 -2.055656
v 2.116979 1.098773 -1.818577
v 2.264890 1.102848 -1.829095
v 2.401206 1.106603 -1.849203
v 2.520687 1.109894 -1.878128
v 2.618743 1.112595 -1.914758
v 2.691606 1.114602 -1.957685
v 2.736474 1.115838 -2.005261
v 3.165080 2.089630 -3.188963
v 2.801992 3.021482 -3.105786
v 3.236155 2.089630 -3.181801
v 2.873067 3.021482 -3.098624
v 3.304498 2.089630 -3.160590
v 2.941411 3.021482 -3.077413
v 3.367484 2.089630 -3.126145
v 3.004396 3.021482 -3.042968
v 3.422692 2.089630 -3.079790
v 3.059604 3.021482 -2.996613
v 3.467999 2.089630 -3.023307
v 3.104912 3.021482 -2.940129
v 3.501666 2.089630 -2.958865
v 3.138578 3.021482 -2.875687
v 3.522398 2.089630 -2.888941
v 3.159310 3.021482 -2.805764
v 3.529398 2.089630 -2.816223
v 3.166310 3.021482 -2.733046
v 3.522398 2.089630 -2.743505
v 3.159310 3.021482 -2.660328
v 3.501666 2.089630 -2.673582
v 3.138578 3.021482 -2.590404
v 3.467999 2.089630 -2.609140
v 3.104912 3.021482 -2.525962
v 3.422692 2.089630 -2.552656
v 3.059604 3.021482 -2.469479
v 3.367484 2.089630 -2.506301
v 3.004396 3.021482 -2.423124
v 3.304498 2.089630 -2.471856
v 2.941411 3.021482 -2.388679
v 3.236155 2.089630 -2.450645
v 2.873067 3.021482 -2.367468
v 3.165080 2.089630 -2.443483
v 2.801992 3.021482 -2.360306
v 3.094005 2.089630 -2.450645
v 2.730917 3.021482 -2.367468
v 3.025661 2.089630 -2.471856
v 2.662574 3.021482 -2.388679
v 2.962676 2.089630 -2.506301
v 2.599588 3.021482 -2.423124
v 2.907468 2.089630 -2.552656
v 2.544380 3.021482 -2.469479
v 2.862160 2.089630 -2.609140
v 2.499073 3.021482 -2.525962
v 2.828494 2.089630 -2.673582
v 2.465406 3.021482 -2.590404
v 2.807762 2.089630 -2.743505
v 2.444674 3.021482 -2.660328
v 2.800762 2.089630 -2.816223
v 2.437674 3.021482 -2.733046
v 2.807762 2.089630 -2.888941
v 2.444674 3.021482 -2.805764
v 2.828494 2.089630 -2.958865
v 2.465406 3.021482 -2.875687
v 2.862160 2.089630 -3.023307
v 2.499073 3.021482 -2.940129
v 2.907468 2.089630 -3.079790
v 2.544380 3.021482 -2.996613
v 2.962676 2.089630 -3.126145
v 2.599588 3.021482 -3.042968
v 3.025661 2.089630 -3.160590
v 2.662574 3.021482 -3.077413
v 3.094005 2.089630 -3.181801
v 2.730917 3.021482 -3.098624
vn -0.0000 -0.0000 -1.0000
vn -0.0401 -0.0000 0.9992
vn -0.0942 -0.0000 0.9956
vn -0.1716 -0.0000 0.9852
vn -0.2605 -0.0000 0.9655
vn -0.3727 -0.0000 0.9280
vn -0.5283 -0.0000 0.8491
vn -0.7534 -0.0000 0.6576
vn -0.9379 -0.0000 0.3470
vn -0.9788 -0.0000 0.2046
vn -0.0000 -0.0000 1.0000
vn 0.0680 -0.0000 0.9977
vn 0.1680 -0.0000 0.9858
vn 0.2962 -0.0000 0.9551
vn 0.4832 -0.0000 0.8755
vn 0.7711 -0.0000 0.6367
vn 0.9806 -0.0000 0.1960
vn -0.0103 -0.9994 0.0331
vn 1.0000 -0.0000 -0.0000
vn -0.0103 0.9994 0.0331
vn 0.0727 0.9974 -0.0000
vn 0.1524 0.9883 -0.0000
vn 0.4599 0.8880 -0.0000
vn 0.5911 0.8066 -0.0000
vn 0.8745 0.4850 -0.0000
vn 0.9919 0.1271 -0.0000
vn -0.0000 1.0000 -0.0000
vn -0.2034 -0.9791 -0.0000
vn -0.6126 -0.7904 -0.0000
vn -0.7803 -0.6255 -0.0000
vn -0.9855 -0.1698 -0.0000
vn -0.0000 -1.0000 -0.0000
vn -1.0000 -0.0000 -0.0000
vn -0.0236 -0.0000 0.9997
vn -0.0972 -0.0000 0.9953
vn -0.2134 -0.0000 0.9770
vn -0.3824 -0.0000 0.9240
vn -0.6793 -0.0000 0.7338
vn -0.9672 -0.0000 0.2540
vn -0.0196 -0.0000 -0.9998
vn -0.0802 -0.0000 -0.9968
vn -0.1708 -0.0000 -0.9853
vn -0.2876 -0.0000 -0.9578
vn -0.4615 -0.0000 -0.8872
vn -0.7462 -0.0000 -0.6657
vn -0.9769 -0.0000 -0.2137
vn -0.0490 -0.0000 0.9988
vn -0.1115 -0.0000 0.9938
vn -0.2028 -0.0000 0.9792
vn -0.3127 -0.0000 0.9499
vn -0.4637 -0.0000 0.8860
vn -0.6948 -0.0000 0.7192
vn -0.9109 -0.0000 0.4127
vn -0.9657 -0.0000 0.2597
vn -0.0119 -0.0000 0.9999
vn 0.0387 -0.0000 0.9992
vn 0.1094 -0.0000 0.9940
vn 0.1906 -0.0000 0.9817
vn 0.2909 -0.0000 0.9568
vn 0.4243 -0.0000 0.9055
vn 0.6112 -0.0000 0.7915
vn 0.8531 -0.0000 0.5218
vn 0.9890 -0.0000 0.1479
vn -0.0131 -0.9990 0.0431
vn -0.0131 0.9990 0.0431
vn 0.0995 0.1268 -0.9869
vn 0.1818 0.1575 -0.9706
vn 0.1891 0.1602 -0.9688
vn 0.3679 0.2239 -0.9025
vn 0.3691 0.2243 -0.9019
vn 0.5345 0.2795 -0.7976
vn 0.5325 0.2788 -0.7992
vn 0.6736 0.3219 -0.6653
vn 0.6704 0.3209 -0.6690
vn 0.7830 0.3509 -0.5136
vn 0.7797 0.3501 -0.5192
vn 0.8624 0.3671 -0.3485
vn 0.8597 0.3667 -0.3556
vn 0.9121 0.3710 -0.1745
vn 0.9104 0.3711 -0.1830
vn 0.9319 0.3627 0.0048
vn 0.9316 0.3634 -0.0047
vn 0.9210 0.3423 0.1860
vn 0.9225 0.3438 0.1756
vn 0.8780 0.3095 0.3653
vn 0.8816 0.3119 0.3543
vn 0.8011 0.2642 0.5371
vn 0.8073 0.2676 0.5259
vn 0.6893 0.2066 0.6944
vn 0.6986 0.2112 0.6836
vn 0.5437 0.1380 0.8279
vn 0.5564 0.1437 0.8184
vn 0.3694 0.0612 0.9273
vn 0.3854 0.0680 0.9203
vn 0.1792 -0.0180 0.9837
vn 0.1969 -0.0108 0.9804
vn 0.1001 -0.0497 0.9937
vn -0.0995 -0.1268 0.9869
vn -0.1891 -0.1602 0.9688
vn -0.1818 -0.1575 0.9706
vn -0.3691 -0.2243 0.9019
vn -0.3679 -0.2239 0.9025
vn -0.5325 -0.2788 0.7992
vn -0.5345 -0.2795 0.7976
vn -0.6704 -0.3209 0.6690
vn -0.6736 -0.3219 0.6653
vn -0.7797 -0.3501 0.5192
vn -0.7830 -0.3509 0.5136
vn -0.8597 -0.3667 0.3556
vn -0.8624 -0.3671 0.3485
vn -0.9104 -0.3711 0.1830
vn -0.9121 -0.3710 0.1745
vn -0.9316 -0.3634 0.0047
vn -0.9319 -0.3627 -0.0048
vn -0.9225 -0.3438 -0.1756
vn -0.9210 -0.3423 -0.1860
vn -0.8816 -0.3119 -0.3543
vn -0.8780 -0.3095 -0.3653
vn -0.8073 -0.2676 -0.5259
vn -0.8011 -0.2642 -0.5371
vn -0.6986 -0.2112 -0.6836
vn -0.6893 -0.2066 -0.6944
vn -0.5564 -0.1437 -0.8184
vn -0.5437 -0.1380 -0.8279
vn -0.3854 -0.0680 -0.9203
vn -0.3694 -0.0612 -0.9273
vn -0.1969 0.0108 -0.9804
vn -0.1792 0.0180 -0.9837
vn -0.1001 0.0497 -0.9937
vt 0.375000 0.250000
vt 0.625000 0.250000
vt 0.625000 0.500000
vt 0.375000 0.500000
vt 0.375000 0.953885
vt 0.625000 0.953885
vt 0.625092 0.964305
vt 0.374908 0.964305
vt 0.625365 0.974519
vt 0.374635 0.974519
vt 0.625000 1.000000
vt 0.375000 1.000000
vt 0.375000 0.000000
vt 0.625000 0.000000
vt 0.625806 0.015985
vt 0.374194 0.015985
vt 0.625365 0.025481
vt 0.374635 0.025481
vt 0.625092 0.035695
vt 0.374908 0.035695
vt 0.625000 0.046115
vt 0.375000 0.046115
vt 0.653623 0.807247
vt 0.346377 0.807247
vt 0.353798 0.791627
vt 0.646202 0.791627
vt 0.360725 0.775481
vt 0.639275 0.775481
vt 0.367799 0.742034
vt 0.632201 0.742034
vt 0.371732 0.709168
vt 0.628268 0.709168
vt 0.374173 0.690164
vt 0.625827 0.690164
vt 0.375000 0.669468
vt 0.625000 0.669468
vt 0.125000 0.500000
vt 0.171115 0.750000
vt 0.160823 0.748874
vt 0.150999 0.745541
vt 0.142174 0.740128
vt 0.134872 0.732826
vt 0.129459 0.724001
vt 0.126126 0.714177
vt 0.125000 0.703885
vt 0.875000 0.500000
vt 0.875000 0.703885
vt 0.873874 0.714177
vt 0.870541 0.724001
vt 0.865128 0.732826
vt 0.857826 0.740128
vt 0.849001 0.745541
vt 0.839177 0.748874
vt 0.828885 0.750000
vt 0.643038 0.490981
vt 0.643038 0.759019
vt 0.635449 0.755568
vt 0.635449 0.494433
vt 0.622358 0.752642
vt 0.622358 0.497358
vt 0.608297 0.750687
vt 0.608297 0.499313
vt 0.597943 0.750000
vt 0.597943 0.500000
vt 0.875000 0.750000
vt 0.375000 0.750000
vt 0.132889 0.500000
vt 0.132889 0.750000
vt 0.128944 0.750000
vt 0.128944 0.500000
vt 0.125000 0.750000
vt 0.376978 0.250534
vt 0.382889 0.000000
vt 0.382889 0.250000
vt 0.382889 1.000000
vt 0.378955 0.998932
vt 0.376068 0.996045
vt 0.375000 0.992111
vt 0.375000 0.257889
vt 0.376068 0.253955
vt 0.625000 0.750000
vt 0.375000 0.946371
vt 0.625000 0.946371
vt 0.625000 0.962943
vt 0.375000 0.962943
vt 0.625000 0.022107
vt 0.375000 0.022107
vt 0.625000 0.037057
vt 0.375000 0.037057
vt 0.625000 0.053629
vt 0.375000 0.053629
vt 0.625000 0.308984
vt 0.375000 0.308984
vt 0.375000 0.293718
vt 0.625000 0.293718
vt 0.375000 0.279492
vt 0.625000 0.279492
vt 0.375000 0.220508
vt 0.625000 0.220508
vt 0.375000 0.206282
vt 0.625000 0.206282
vt 0.375000 0.191016
vt 0.625000 0.191016
vt 0.125000 0.558984
vt 0.127010 0.543718
vt 0.132902 0.529492
vt 0.142276 0.517276
vt 0.154492 0.507902
vt 0.168718 0.502010
vt 0.183984 0.500000
vt 0.178629 0.750000
vt 0.162057 0.747375
vt 0.147107 0.739758
vt 0.135242 0.727893
vt 0.127625 0.712943
vt 0.125000 0.696371
vt 0.816016 0.500000
vt 0.831282 0.502010
vt 0.845508 0.507902
vt 0.857724 0.517276
vt 0.867098 0.529492
vt 0.872990 0.543718
vt 0.875000 0.558984
vt 0.875000 0.696371
vt 0.872375 0.712943
vt 0.864758 0.727893
vt 0.852893 0.739758
vt 0.837943 0.747375
vt 0.821371 0.750000
vt 0.375000 0.959801
vt 0.625000 0.959801
vt 0.625147 0.970446
vt 0.374853 0.970446
vt 0.625578 0.980846
vt 0.374422 0.980846
vt 0.625578 0.019154
vt 0.374422 0.019154
vt 0.625147 0.029554
vt 0.374853 0.029554
vt 0.625000 0.040199
vt 0.375000 0.040199
vt 0.660761 0.821522
vt 0.339239 0.821522
vt 0.346227 0.807035
vt 0.653773 0.807035
vt 0.352958 0.792046
vt 0.647042 0.792046
vt 0.359153 0.777153
vt 0.640847 0.777153
vt 0.366397 0.740173
vt 0.633603 0.740173
vt 0.370091 0.704908
vt 0.629909 0.704908
vt 0.372796 0.688402
vt 0.627204 0.688402
vt 0.374446 0.670226
vt 0.625554 0.670226
vt 0.375000 0.651056
vt 0.625000 0.651056
vt 0.165199 0.750000
vt 0.154749 0.748676
vt 0.144942 0.744772
vt 0.136541 0.738459
vt 0.130228 0.730058
vt 0.126324 0.720251
vt 0.125000 0.709801
vt 0.875000 0.709801
vt 0.873676 0.720251
vt 0.869772 0.730058
vt 0.863459 0.738459
vt 0.855058 0.744772
vt 0.845251 0.748676
vt 0.834801 0.750000
vt 1.000000 0.500000
vt 1.000000 1.000000
vt 0.968750 1.000000
vt 0.968750 0.500000
vt 0.937500 1.000000
vt 0.937500 0.500000
vt 0.906250 1.000000
vt 0.906250 0.500000
vt 0.875000 1.000000
vt 0.843750 1.000000
vt 0.843750 0.500000
vt 0.812500 1.000000
vt 0.812500 0.500000
vt 0.781250 1.000000
vt 0.781250 0.500000
vt 0.750000 1.000000
vt 0.750000 0.500000
vt 0.718750 1.000000
vt 0.718750 0.500000
vt 0.687500 1.000000
vt 0.687500 0.500000
vt 0.656250 1.000000
vt 0.656250 0.500000
vt 0.593750 1.000000
vt 0.593750 0.500000
vt 0.562500 1.000000
vt 0.562500 0.500000
vt 0.531250 1.000000
vt 0.531250 0.500000
vt 0.500000 1.000000
vt 0.500000 0.500000
vt 0.468750 1.000000
vt 0.468750 0.500000
vt 0.437500 1.000000
vt 0.437500 0.500000
vt 0.406250 1.000000
vt 0.406250 0.500000
vt 0.343750 1.000000
vt 0.343750 0.500000
vt 0.312500 1.000000
vt 0.312500 0.500000
vt 0.281250 1.000000
vt 0.281250 0.500000
vt 0.250000 1.000000
vt 0.250000 0.500000
vt 0.218750 1.000000
vt 0.218750 0.500000
vt 0.187500 1.000000
vt 0.187500 0.500000
vt 0.156250 1.000000
vt 0.156250 0.500000
vt 0.125000 1.000000
vt 0.093750 1.000000
vt 0.093750 0.500000
vt 0.062500 1.000000
vt 0.062500 0.500000
vt 0.296822 0.485388
vt 0.250000 0.490000
vt 0.203178 0.485388
vt 0.158156 0.471731
vt 0.116663 0.449553
vt 0.080294 0.419706
vt 0.050447 0.383337
vt 0.028269 0.341844
vt 0.014612 0.296822
vt 0.010000 0.250000
vt 0.014612 0.203178
vt 0.028269 0.158156
vt 0.050447 0.116663
vt 0.080294 0.080294
vt 0.116663 0.050447
vt 0.158156 0.028269
vt 0.203178 0.014612
vt 0.250000 0.010000
vt 0.296822 0.014612
vt 0.341844 0.028269
vt 0.383337 0.050447
vt 0.419706 0.080294
vt 0.449553 0.116663
vt 0.471731 0.158156
vt 0.485388 0.203178
vt 0.490000 0.250000
vt 0.485388 0.296822
vt 0.471731 0.341844
vt 0.449553 0.383337
vt 0.419706 0.419706
vt 0.383337 0.449553
vt 0.341844 0.471731
vt 0.031250 1.000000
vt 0.031250 0.500000
vt 0.000000 1.000000
vt 0.000000 0.500000
vt 0.750000 0.490000
vt 0.796822 0.485388
vt 0.841844 0.471731
vt 0.883337 0.449553
vt 0.919706 0.419706
vt 0.949553 0.383337
vt 0.971731 0.341844
vt 0.985388 0.296822
vt 0.990000 0.250000
vt 0.985388 0.203178
vt 0.971731 0.158156
vt 0.949553 0.116663
vt 0.919706 0.080294
vt 0.883337 0.050447
vt 0.841844 0.028269
vt 0.796822 0.014612
vt 0.750000 0.010000
vt 0.703178 0.014612
vt 0.658156 0.028269
vt 0.616663 0.050447
vt 0.580294 0.080294
vt 0.550447 0.116663
vt 0.528269 0.158156
vt 0.514612 0.203178
vt 0.510000 0.250000
vt 0.514612 0.296822
vt 0.528269 0.341844
vt 0.550447 0.383337
vt 0.580294 0.419706
vt 0.616663 0.449553
vt 0.658156 0.471731
vt 0.703178 0.485388
s 1
f 1/1/1 2/2/1 4/3/1 3/4/1
f 5/5/2 14/6/2 20/7/3 7/8/3
f 7/8/3 20/7/3 19/9/4 8/10/4
f 8/10/4 19/9/4 18/11/5 9/12/5
f 9/13/5 18/14/5 17/15/6 10/16/6
f 10/16/6 17/15/6 16/17/7 11/18/7
f 11/18/7 16/17/7 15/19/8 12/20/8
f 12/20/8 15/19/8 13/21/9 6/22/9
f 6/22/9 13/21/9 2/2/10 1/1/10
f 28/23/11 22/24/11 27/25/12 30/26/12
f 30/26/12 27/25/12 26/27/13 31/28/13
f 31/28/13 26/27/13 25/29/14 32/30/14
f 32/30/14 25/29/14 24/31/15 33/32/15
f 33/32/15 24/31/15 23/33/16 34/34/16
f 34/34/16 23/33/16 21/35/17 29/36/17
f 1/37/18 3/4/18 21/35/18 23/33/18 24/31/18 25/29/18 26/27/18 27/25/18 22/24/18 5/38/18 7/39/18 8/40/18 9/41/18 10/42/18 11/43/18 12/44/18 6/45/18
f 3/4/19 4/3/19 29/36/17 21/35/17
f 22/24/11 28/23/11 14/6/2 5/5/2
f 4/3/20 2/46/20 13/47/20 15/48/20 16/49/20 17/50/20 18/51/20 19/52/20 20/53/20 14/54/20 28/23/20 30/26/20 31/28/20 32/30/20 33/32/20 34/34/20 29/36/20
f 44/55/21 40/56/21 43/57/22 46/58/22
f 46/58/23 43/57/23 42/59/24 47/60/24
f 47/60/24 42/59/24 41/61/25 48/62/25
f 48/62/25 41/61/25 39/63/26 45/64/26
f 44/55/21 36/46/27 35/65/27 40/56/21
f 38/4/19 45/64/26 39/63/26 37/66/19
f 53/67/28 50/68/28 52/69/28 55/70/28
f 55/70/29 52/69/29 51/71/30 56/37/30
f 56/72/30 51/13/30 49/73/31 54/74/31
f 53/67/32 38/4/32 37/66/32 50/68/32
f 49/73/31 35/14/33 36/2/33 54/74/31
f 37/66/11 39/63/11 41/61/11 42/59/11 43/57/11 40/56/11 35/11/11 49/75/11 51/76/11 52/77/11 50/78/11
f 53/79/1 55/80/1 56/72/1 54/74/1 36/2/1 44/55/1 46/58/1 47/60/1 48/62/1 45/64/1 38/4/1
f 59/4/19 60/3/19 58/81/19 57/66/19
f 61/82/34 68/83/34 72/84/35 63/85/35
f 63/85/35 72/84/35 71/11/36 64/12/36
f 64/13/36 71/14/36 70/86/37 65/87/37
f 65/87/37 70/86/37 69/88/38 66/89/38
f 66/89/38 69/88/38 67/90/39 62/91/39
f 57/66/11 58/81/11 68/83/34 61/82/34
f 80/92/40 74/93/40 79/94/41 82/95/41
f 82/95/41 79/94/41 78/96/42 83/97/42
f 83/97/42 78/96/42 77/1/43 84/2/43
f 84/2/43 77/1/43 76/98/44 85/99/44
f 85/99/44 76/98/44 75/100/45 86/101/45
f 86/101/45 75/100/45 73/102/46 81/103/46
f 62/91/39 67/90/39 81/103/46 73/102/46
f 74/93/40 80/92/40 60/3/1 59/4/1
f 73/104/32 75/105/32 76/106/32 77/107/32 78/108/32 79/109/32 74/110/32 59/4/32 57/66/32 61/111/32 63/112/32 64/113/32 65/114/32 66/115/32 62/116/32
f 60/3/27 80/117/27 82/118/27 83/119/27 84/120/27 85/121/27 86/122/27 81/123/27 67/124/27 69/125/27 70/126/27 71/127/27 72/128/27 68/129/27 58/81/27
f 87/1/1 88/2/1 90/3/1 89/4/1
f 91/130/47 99/131/47 104/132/48 93/133/48
f 93/133/48 104/132/48 103/134/49 94/135/49
f 94/135/49 103/134/49 102/11/50 95/12/50
f 95/13/50 102/14/50 101/136/51 96/137/51
f 96/137/51 101/136/51 100/138/52 97/139/52
f 97/139/52 100/138/52 98/140/53 92/141/53
f 92/141/53 98/140/53 88/2/54 87/1/54
f 114/142/55 106/143/55 113/144/56 116/145/56
f 116/145/56 113/144/56 112/146/57 117/147/57
f 117/147/57 112/146/57 111/148/58 118/149/58
f 118/149/58 111/148/58 110/150/59 119/151/59
f 119/151/59 110/150/59 109/152/60 120/153/60
f 120/153/60 109/152/60 108/154/61 121/155/61
f 121/155/61 108/154/61 107/156/62 122/157/62
f 122/157/62 107/156/62 105/158/63 115/159/63
f 87/37/64 89/4/64 105/158/64 107/156/64 108/154/64 109/152/64 110/150/64 111/148/64 112/146/64 113/144/64 106/143/64 91/160/64 93/161/64 94/162/64 95/163/64 96/164/64 97/165/64 92/166/64
f 89/4/19 90/3/19 115/159/63 105/158/63
f 106/143/55 114/142/55 99/131/47 91/130/47
f 90/3/65 88/46/65 98/167/65 100/168/65 101/169/65 102/170/65 103/171/65 104/172/65 99/173/65 114/142/65 116/145/65 117/147/65 118/149/65 119/151/65 120/153/65 121/155/65 122/157/65 115/159/65
f 123/174/66 124/175/66 126/176/67 125/177/68
f 125/177/68 126/176/67 128/178/69 127/179/70
f 127/179/70 128/178/69 130/180/71 129/181/72
f 129/181/72 130/180/71 132/182/73 131/46/74
f 131/46/74 132/182/73 134/183/75 133/184/76
f 133/184/76 134/183/75 136/185/77 135/186/78
f 135/186/78 136/185/77 138/187/79 137/188/80
f 137/188/80 138/187/79 140/189/81 139/190/82
f 139/190/82 140/189/81 142/191/83 141/192/84
f 141/192/84 142/191/83 144/193/85 143/194/86
f 143/194/86 144/193/85 146/195/87 145/196/88
f 145/196/88 146/195/87 148/11/89 147/3/90
f 147/3/90 148/11/89 150/197/91 149/198/92
f 149/198/92 150/197/91 152/199/93 151/200/94
f 151/200/94 152/199/93 154/201/95 153/202/96
f 153/202/96 154/201/95 156/203/97 155/204/97
f 155/204/98 156/203/98 158/205/99 157/206/100
f 157/206/100 158/205/99 160/207/101 159/208/102
f 159/208/102 160/207/101 162/209/103 161/210/104
f 161/210/104 162/209/103 164/12/105 163/4/106
f 163/4/106 164/12/105 166/211/107 165/212/108
f 165/212/108 166/211/107 168/213/109 167/214/110
f 167/214/110 168/213/109 170/215/111 169/216/112
f 169/216/112 170/215/111 172/217/113 171/218/114
f 171/218/114 172/217/113 174/219/115 173/220/116
f 173/220/116 174/219/115 176/221/117 175/222/118
f 175/222/118 176/221/117 178/223/119 177/224/120
f 177/224/120 178/223/119 180/225/121 179/37/122
f 179/37/122 180/225/121 182/226/123 181/227/124
f 181/227/124 182/226/123 184/228/125 183/229/126
f 126/230/27 124/231/27 186/232/27 184/233/27 182/234/27 180/235/27 178/236/27 176/237/27 174/238/27 172/239/27 170/240/27 168/241/27 166/242/27 164/243/27 162/244/27 160/245/27 158/246/27 156/247/27 154/248/27 152/249/27 150/250/27 148/251/27 146/252/27 144/253/27 142/254/27 140/255/27 138/256/27 136/257/27 134/258/27 132/259/27 130/260/27 128/261/27
f 183/229/126 184/228/125 186/262/127 185/263/128
f 185/263/128 186/262/127 124/264/129 123/265/129
f 123/266/32 125/267/32 127/268/32 129/269/32 131/270/32 133/271/32 135/272/32 137/273/32 139/274/32 141/275/32 143/276/32 145/277/32 147/278/32 149/279/32 151/280/32 153/281/32 155/282/32 157/283/32 159/284/32 161/285/32 163/286/32 165/287/32 167/288/32 169/289/32 171/290/32 173/291/32 175/292/32 177/293/32 179/294/32 181/295/32 183/296/32 185/297/32
