# Blender 5.0.0 Release Candidate
# www.blender.org
mtllib knife.mtl
o Cube.001
v 0.171089 0.582076 -0.002882
v 0.184139 0.440104 -0.786345
v 0.173875 0.580086 0.000160
v 0.583240 0.435970 0.034594
v 0.169777 0.583134 -0.002960
v -0.208638 0.458917 -0.024099
v 0.198323 0.454461 0.858668
v 0.198197 0.440104 0.848330
vn 0.3427 0.9257 -0.1603
vn 0.3501 0.9258 0.1428
vn -0.3511 0.9214 0.1665
vn -0.2947 0.9391 -0.1769
vn 0.5398 0.8350 0.1066
vn -0.0290 -0.9996 0.0002
vt 0.375000 0.000000
vt 0.625000 0.000000
vt 0.625000 0.250000
vt 0.375000 0.250000
vt 0.625000 0.500000
vt 0.375000 0.500000
vt 0.625000 0.750000
vt 0.375000 0.750000
vt 0.625000 1.000000
vt 0.375000 1.000000
vt 0.125000 0.500000
vt 0.125000 0.750000
vt 0.875000 0.500000
vt 0.875000 0.750000
s 0
f 1/1/1 3/4/1 4/3/1 2/2/1
f 3/4/2 7/6/2 8/5/2 4/3/2
f 7/6/3 5/8/3 6/7/3 8/5/3
f 5/8/4 1/10/4 2/9/4 6/7/4
f 3/11/5 1/12/5 5/8/5 7/6/5
f 8/5/6 6/7/6 2/14/6 4/13/6
